<?xml version="1.0" encoding="UTF-8" standalone="no"?>
<svg id="svg2" xmlns="http://www.w3.org/2000/svg" width="363" height="246.496" style="shape-rendering:geometricPrecision;text-rendering:geometricPrecision;image-rendering:optimizeQuality;fill-rule:evenodd;clip-rule:evenodd" viewBox="0 0 363px 246.496px">
  <path style="opacity:1" fill="#fefefe" d="M108.12 52.948q24.476-.222 48.943.445 43.148 6.665 51.168 49.388a384 384 0 0 1-.89 50.723q-11.263 41.068-53.838 44.049a411 411 0 0 1-50.723-.89q-39.093-8.942-46.718-48.498-.89-22.692 0-45.384 8.476-43.406 52.058-49.833m.89 27.586q23.586-.222 47.164.445 22.024 4.674 24.472 27.141.89 17.353 0 34.705-2.912 22.112-24.472 27.141a625 625 0 0 1-47.164 0q-20.834-4.37-24.472-25.362a273 273 0 0 1 .89-42.714q5.733-17.531 23.582-21.357"/>
  <path style="opacity:1" fill="#fefefe" d="M274.527 191.769q1.772-6.165 1.78-13.348l-.445-13.348q-1.028-1.466-2.225 0v-4.449q1.768 1.939 2.225-.89.89-38.265 0-76.529l-.89-.89q-.371 1.222-1.335 1.78-27.106-2.655-55.172-1.78V55.619q70.076-.027 139.711 0 .426 13.236-.89 26.251-27.583.667-55.172.445.222 56.509-.445 113.014a131.4 131.4 0 0 1-26.251.445q-3.046-1.447-.89-4.004"/>
  <path style="opacity:1" fill="#fefefe" d="M4.894 55.617H33.37q.222 69.857-.445 139.711a104.7 104.7 0 0 1-27.141 0q-1.335-69.849-.89-139.711"/>
</svg>
