<?xml version="1.0" encoding="UTF-8" standalone="no"?>
<svg width="40px" height="40px" viewBox="0 0 40 40" version="1.1" xmlns="http://www.w3.org/2000/svg" xmlns:xlink="http://www.w3.org/1999/xlink">
    <g stroke="none" stroke-width="1" fill="none" fill-rule="evenodd">
        <g fill="#FFFFFF">
            <path d="M40,20 C40,31.046 31.046,40 20,40 C8.954,40 0,31.046 0,20 C0,8.954 8.954,0 20,0 C31.046,0 40,8.954 40,20" id="circle"></path>
            <path d="M20,10 C14.477,10 10,14.477 10,20 C10,25.523 14.477,30 20,30 C25.523,30 30,25.523 30,20 C30,14.477 25.523,10 20,10 M20,12 C24.418,12 28,15.582 28,20 C28,24.418 24.418,28 20,28 C15.582,28 12,24.418 12,20 C12,15.582 15.582,12 20,12" id="ring" fill-rule="nonzero"></path>
        </g>
    </g>
</svg>
