<?xml version="1.0" encoding="UTF-8" standalone="no"?>
<svg width="150px" height="40px" viewBox="0 0 150 40" version="1.1" xmlns="http://www.w3.org/2000/svg" xmlns:xlink="http://www.w3.org/1999/xlink">
    <g stroke="none" stroke-width="1" fill="none" fill-rule="evenodd">
        <g fill="#FFFFFF">
            <path d="M40,20 C40,31.046 31.046,40 20,40 C8.954,40 0,31.046 0,20 C0,8.954 8.954,0 20,0 C31.046,0 40,8.954 40,20" id="circle"></path>
            <path d="M20,10 C14.477,10 10,14.477 10,20 C10,25.523 14.477,30 20,30 C25.523,30 30,25.523 30,20 C30,14.477 25.523,10 20,10 M20,12 C24.418,12 28,15.582 28,20 C28,24.418 24.418,28 20,28 C15.582,28 12,24.418 12,20 C12,15.582 15.582,12 20,12" id="ring" fill-rule="nonzero"></path>
            <path d="M60,12 L64,12 L64,28 L60,28 L60,12 Z M70,12 L74,12 L80,22 L80,12 L84,12 L84,28 L80,28 L74,18 L74,28 L70,28 L70,12 Z M90,12 L101,12 L101,16 L94,16 L94,18 L100,18 L100,22 L94,22 L94,24 L101,24 L101,28 L90,28 L90,12 Z M107,12 L111,12 L117,22 L117,12 L121,12 L121,28 L117,28 L111,18 L111,28 L107,28 L107,12 Z M127,12 L138,12 L138,16 L131,16 L131,18 L137,18 L137,22 L131,22 L131,24 L138,24 L138,28 L127,28 L127,12 Z" id="MyTB"></path>
        </g>
    </g>
</svg>