<?xml version="1.0" encoding="UTF-8" standalone="no"?>
<svg id="svg2" xmlns="http://www.w3.org/2000/svg" version="1.1" width="899px" height="277px" style="shape-rendering:geometricPrecision; text-rendering:geometricPrecision; image-rendering:optimizeQuality; fill-rule:evenodd; clip-rule:evenodd" xmlns:xlink="http://www.w3.org/1999/xlink">
<g><path style="opacity:0.895" fill="#fefefe" d="M 761.5,50.5 C 771.749,50.1806 781.916,50.5139 792,51.5C 792.333,95.5 792.667,139.5 793,183.5C 793.785,185.286 794.951,186.786 796.5,188C 806.739,189.144 817.072,189.644 827.5,189.5C 837.928,189.644 848.261,189.144 858.5,188C 860.049,186.786 861.215,185.286 862,183.5C 862.955,167.1 862.622,150.766 861,134.5C 859.2,132.683 857.034,131.516 854.5,131C 836.503,130.5 818.503,130.333 800.5,130.5C 800.5,120.5 800.5,110.5 800.5,100.5C 820.503,100.333 840.503,100.5 860.5,101C 879.228,104.062 890.395,114.895 894,133.5C 894.935,152.544 894.602,171.544 893,190.5C 887.96,207.873 876.46,217.706 858.5,220C 836.467,220.92 814.467,220.587 792.5,219C 775.306,215.14 764.806,204.64 761,187.5C 760.172,141.762 760.339,96.0958 761.5,50.5 Z"/></g>
<g><path style="opacity:0.906" fill="#fefefe" d="M 121.5,59.5 C 139.836,59.3334 158.17,59.5001 176.5,60C 208.825,64.9935 227.992,83.4935 234,115.5C 234.921,134.538 234.587,153.538 233,172.5C 224.562,203.267 204.395,219.767 172.5,222C 153.475,222.84 134.475,222.507 115.5,221C 86.2116,214.301 68.7116,196.134 63,166.5C 62.3333,149.5 62.3333,132.5 63,115.5C 69.3496,82.9817 88.8496,64.3151 121.5,59.5 Z M 122.5,90.5 C 140.17,90.3334 157.836,90.5001 175.5,91C 191.999,94.5015 201.166,104.668 203,121.5C 203.667,134.5 203.667,147.5 203,160.5C 200.819,177.065 191.652,187.232 175.5,191C 157.833,191.667 140.167,191.667 122.5,191C 106.892,187.726 97.7257,178.226 95,162.5C 94.0786,146.454 94.412,130.454 96,114.5C 100.294,101.367 109.128,93.3673 122.5,90.5 Z"/></g>
<g><path style="opacity:0.928" fill="#fefefe" d="M 308.5,215.5 C 309.828,210.881 310.494,205.881 310.5,200.5C 310.333,195.5 310.167,190.5 310,185.5C 309.23,184.402 308.397,184.402 307.5,185.5C 307.5,183.833 307.5,182.167 307.5,180.5C 308.825,181.953 309.658,181.619 310,179.5C 310.667,150.833 310.667,122.167 310,93.5C 309.667,93.1667 309.333,92.8333 309,92.5C 308.722,93.4158 308.222,94.0825 307.5,94.5C 287.194,92.5115 266.527,91.8449 245.5,92.5C 245.5,82.5 245.5,72.5 245.5,62.5C 297.999,62.4804 350.332,62.4804 402.5,62.5C 402.819,72.4163 402.486,82.2496 401.5,92C 380.836,92.5 360.169,92.6666 339.5,92.5C 339.667,134.835 339.5,177.168 339,219.5C 329.244,220.651 319.411,220.818 309.5,220C 307.218,218.916 306.884,217.416 308.5,215.5 Z"/></g>
<g><path style="opacity:0.912" fill="#fefefe" d="M 421.5,61.5 C 431.197,62.4037 440.864,62.7371 450.5,62.5C 451.5,83.4894 451.833,104.489 451.5,125.5C 483.833,125.5 516.167,125.5 548.5,125.5C 548.333,104.497 548.5,83.4974 549,62.5C 558.756,61.3485 568.589,61.1819 578.5,62C 579.165,88.2622 579.498,114.596 579.5,141C 579.498,167.404 579.165,193.738 578.5,220C 568.589,220.818 558.756,220.651 549,219.5C 548.5,198.503 548.333,177.503 548.5,156.5C 516.167,156.5 483.833,156.5 451.5,156.5C 451.667,177.503 451.5,198.503 451,219.5C 440.863,220.824 430.697,220.824 420.5,219.5C 420.167,193.333 419.833,167.167 419.5,141C 419.509,114.286 420.175,87.7857 421.5,61.5 Z"/></g>
<g><path style="opacity:0.886" fill="#fefefe" d="M 5.5,62.5 C 16.1667,62.5 26.8333,62.5 37.5,62.5C 37.6667,114.834 37.5,167.168 37,219.5C 26.8632,220.824 16.6966,220.824 6.5,219.5C 5.50005,167.171 5.16672,114.838 5.5,62.5 Z"/></g>
<g><path style="opacity:0.901" fill="#fefefe" d="M 604.5,100.5 C 614.833,100.5 625.167,100.5 635.5,100.5C 635.333,124.169 635.5,147.836 636,171.5C 638.433,180.265 643.933,186.099 652.5,189C 670.497,189.5 688.497,189.667 706.5,189.5C 706.5,159.833 706.5,130.167 706.5,100.5C 716.833,100.5 727.167,100.5 737.5,100.5C 737.667,137.168 737.5,173.835 737,210.5C 734.435,215.707 730.268,218.874 724.5,220C 700.833,220.667 677.167,220.667 653.5,220C 631.448,217.741 615.948,206.574 607,186.5C 605.278,180.282 604.278,173.949 604,167.5C 603.867,145.172 604.034,122.839 604.5,100.5 Z"/></g>
</svg>